<?xml version="1.0" encoding="utf-8"?>
<!-- Generator: Adobe Illustrator 16.0.0, SVG Export Plug-In . SVG Version: 6.00 Build 0)  -->
<!DOCTYPE svg PUBLIC "-//W3C//DTD SVG 1.1//EN" "http://www.w3.org/Graphics/SVG/1.1/DTD/svg11.dtd">
<svg version="1.1" id="Layer_1" xmlns="http://www.w3.org/2000/svg" xmlns:xlink="http://www.w3.org/1999/xlink" x="0px" y="0px"
	 width="71.333px" height="56.58px" viewBox="0 0 71.333 56.58" enable-background="new 0 0 71.333 56.58" xml:space="preserve">
<g>
	<path fill="#FFFFFF" d="M61.667,28.347c0.018-14.897-21.65-26.999-48.396-27.031C9.542,1.31,5.911,1.542,2.421,1.982
		c4.742,6.605,7.7,15.944,7.688,26.303c-0.014,10.359-2.992,19.689-7.749,26.287c3.486,0.447,7.116,0.688,10.847,0.692
		C39.951,55.297,61.65,43.246,61.667,28.347z"/>
	<path d="M13.204,56.58c-3.712-0.006-7.416-0.242-11.014-0.705L0,55.594l1.292-1.791c4.826-6.693,7.49-15.756,7.502-25.519
		C8.806,18.521,6.163,9.451,1.354,2.75L0.067,0.955l2.188-0.276C5.854,0.222,9.56-0.005,13.272,0
		c13.156,0.018,25.542,2.895,34.875,8.109c9.574,5.349,14.844,12.535,14.834,20.239c-0.01,7.703-5.295,14.881-14.883,20.206
		C38.751,53.745,26.36,56.595,13.204,56.58z M4.659,53.511c2.811,0.289,5.678,0.436,8.549,0.438
		c25.979,0.031,47.127-11.453,47.145-25.604C60.369,14.196,39.248,2.661,13.27,2.63c-2.872-0.003-5.737,0.137-8.55,0.417
		c4.348,6.916,6.715,15.786,6.703,25.24C11.412,37.742,9.022,46.604,4.659,53.511z"/>
</g>
<g>
	<circle fill="#FFFFFF" cx="65.874" cy="29.302" r="4.407"/>
	<path d="M65.867,34.759c-3.01-0.004-5.455-2.454-5.451-5.465s2.455-5.455,5.465-5.451c3.01,0.003,5.455,2.454,5.453,5.465
		C71.33,32.318,68.876,34.762,65.867,34.759z M65.878,25.947c-1.85-0.004-3.357,1.501-3.359,3.35
		c-0.002,1.851,1.502,3.357,3.352,3.36c1.85,0.002,3.355-1.501,3.359-3.352C69.232,27.457,67.728,25.949,65.878,25.947z"/>
</g>
</svg>
